<svg width="26" height="26" viewBox="0 0 26 26" fill="none" xmlns="http://www.w3.org/2000/svg">
<g clip-path="url(#clip0_3_2261)">
<path d="M13 9.90438C11.2903 9.90495 9.90495 11.2914 9.90553 13.0012C9.90612 14.7109 11.2926 16.0962 13.0023 16.0956C14.7115 16.095 16.0968 14.7092 16.0968 13C16.0956 11.2903 14.7097 9.90495 13 9.90438ZM20.2376 7.52491C19.919 6.71763 19.28 6.07866 18.4728 5.76004C17.254 5.27893 14.3522 5.38687 13 5.38687C11.6478 5.38687 8.74888 5.27487 7.52665 5.76004C6.71938 6.07866 6.0804 6.71763 5.76179 7.52491C5.28125 8.74366 5.38862 11.6483 5.38862 12.9994C5.38862 14.3505 5.28125 17.2517 5.76411 18.4745C6.08272 19.2818 6.7217 19.9208 7.52897 20.2394C8.74772 20.7205 11.6495 20.6125 13.0023 20.6125C14.3551 20.6125 17.2529 20.7246 18.4751 20.2394C19.2824 19.9208 19.9213 19.2818 20.24 18.4745C20.7246 17.2558 20.6131 14.3511 20.6131 13C20.6131 11.6489 20.7246 8.7483 20.24 7.52549H20.2376V7.52491ZM13 17.7583C10.3716 17.7583 8.24107 15.6279 8.24107 12.9994C8.24107 10.371 10.3716 8.24049 13 8.24049C15.6284 8.24049 17.7589 10.371 17.7589 12.9994C17.7624 15.6244 15.6366 17.7549 13.0116 17.7583C13.0075 17.7583 13.0041 17.7583 13 17.7583ZM17.9551 9.15165C17.3417 9.15165 16.8443 8.65487 16.8437 8.04143C16.8431 7.42799 17.3405 6.93062 17.9539 6.93004C18.5674 6.93004 19.0647 7.42683 19.0653 8.04027C19.0676 8.65312 18.5737 9.15165 17.9615 9.15397H17.9574L17.9551 9.15165ZM23.2143 0H2.78571C1.24719 0 0 1.24719 0 2.78571V23.2143C0 24.7528 1.24719 26 2.78571 26H23.2143C24.7528 26 26 24.7528 26 23.2143V2.78571C26 1.24719 24.7528 0 23.2143 0ZM22.2207 16.8304C22.1458 18.3178 21.8063 19.6358 20.7205 20.7188C19.6346 21.8017 18.3178 22.1482 16.8321 22.219C15.2994 22.3054 10.7041 22.3054 9.17138 22.219C7.68393 22.1441 6.37058 21.804 5.28299 20.7188C4.1954 19.6335 3.85357 18.3149 3.78277 16.8304C3.69629 15.2971 3.69629 10.7012 3.78277 9.16964C3.85763 7.68219 4.19308 6.3642 5.28299 5.28125C6.3729 4.1983 7.68973 3.85589 9.17138 3.78509C10.7041 3.69862 15.2994 3.69862 16.8321 3.78509C18.3196 3.85996 19.637 4.20004 20.7205 5.28531C21.804 6.37058 22.1499 7.68915 22.2207 9.17661C22.3072 10.7041 22.3072 15.2959 22.2207 16.8304Z" fill="#F3F8E7"/>
</g>
<defs>
<clipPath id="clip0_3_2261">
<rect width="26" height="26" fill="white"/>
</clipPath>
</defs>
</svg>
