<svg width="211" height="29" viewBox="0 0 211 29" fill="none" xmlns="http://www.w3.org/2000/svg">
<g clip-path="url(#clip0_390_724)">
<path fill-rule="evenodd" clip-rule="evenodd" d="M14.6348 22.5414V14.2353C14.6348 11.3806 16.9334 9.06831 19.7428 9.06831V5.86475C15.1711 5.86475 11.4678 9.61085 11.4678 14.2353V22.5414H14.6348Z" fill="#54575B"/>
<path fill-rule="evenodd" clip-rule="evenodd" d="M100.615 22.5414V14.2353C100.615 11.3806 102.914 9.06831 105.723 9.06831V5.86475C101.152 5.86475 97.4482 9.61085 97.4482 14.2353V22.5414H100.615Z" fill="#54575B"/>
<path fill-rule="evenodd" clip-rule="evenodd" d="M51.4379 12.3365V22.593H48.271V12.3365C48.271 10.3988 46.9684 9.05539 45.104 9.05539C43.2395 9.05539 41.937 10.3988 41.937 12.3365V22.593H38.77V12.3365C38.77 9.84337 40.0087 7.76363 41.937 6.67855C42.8564 6.16185 43.9291 5.86475 45.104 5.86475C46.2788 5.86475 47.3515 6.16185 48.271 6.67855C50.1865 7.76363 51.4379 9.84337 51.4379 12.3365Z" fill="#54575B"/>
<path fill-rule="evenodd" clip-rule="evenodd" d="M122.58 14.2353C122.58 18.8598 118.876 22.6059 114.305 22.6059C113.053 22.6059 111.878 22.3218 110.819 21.8309L112.159 18.9244C112.811 19.2345 113.539 19.4024 114.305 19.4024C117.127 19.4024 119.413 17.0772 119.413 14.2353C119.413 11.3935 117.114 9.06831 114.305 9.06831C111.495 9.06831 109.197 11.3935 109.197 14.2353V29.0002H106.03V14.2353C106.03 9.61085 109.733 5.86475 114.305 5.86475C118.876 5.86475 122.58 9.61085 122.58 14.2353Z" fill="#54575B"/>
<path fill-rule="evenodd" clip-rule="evenodd" d="M36.2668 14.2351V22.6057H33.0998V14.2351C33.0998 11.3803 30.8012 9.06804 27.9918 9.06804C25.1824 9.06804 22.8838 11.3932 22.8838 14.2351C22.8838 17.077 25.1824 19.4021 27.9918 19.4021C28.758 19.4021 29.4859 19.2342 30.1372 18.9242L30.3543 19.4021L31.4653 21.8177C30.4054 22.3215 29.2305 22.5928 27.979 22.5928C25.3356 22.5928 22.9859 21.3398 21.4791 19.3892C20.3681 17.9683 19.7168 16.1727 19.7168 14.2222C19.7168 12.2716 20.3808 10.4761 21.4791 9.05513C22.9987 7.10457 25.3484 5.85156 27.979 5.85156C30.6097 5.85156 32.9721 7.10457 34.479 9.05513C35.59 10.4761 36.2413 12.2716 36.2413 14.2222" fill="#54575B"/>
<path fill-rule="evenodd" clip-rule="evenodd" d="M95.5587 14.2354C95.5587 16.186 94.8946 17.9815 93.7964 19.4025C92.2895 21.353 89.9271 22.606 87.2964 22.606C84.6658 22.606 82.3033 21.353 80.7965 19.4025C79.6855 17.9815 79.0342 16.186 79.0342 14.2354C79.0342 12.9437 79.3279 11.7294 79.8387 10.6443C80.1069 10.076 80.4261 9.55925 80.8092 9.06838C81.0008 8.82294 81.2051 8.59043 81.4222 8.35791L83.657 10.6185C83.657 10.6185 83.6569 10.6185 83.6442 10.6314C82.7503 11.5615 82.2012 12.8274 82.2012 14.2225C82.2012 17.0644 84.4998 19.3895 87.3092 19.3895C90.1186 19.3895 92.4172 17.0644 92.4172 14.2225C92.4172 12.8274 91.8681 11.5486 90.9742 10.6314C90.9742 10.6314 90.9742 10.6314 90.9614 10.6185L93.1962 8.35791C93.4133 8.57751 93.6176 8.82294 93.8092 9.06838C94.1795 9.54633 94.5115 10.076 94.7797 10.6443C95.2905 11.7294 95.5842 12.9566 95.5842 14.2354" fill="#54575B"/>
<path fill-rule="evenodd" clip-rule="evenodd" d="M63.8249 14.7133L62.8671 14.1708L58.768 11.8714L57.0312 10.9026C56.7375 10.7347 56.5332 10.4117 56.5332 10.05C56.5332 9.50751 56.9674 9.06831 57.5037 9.06831H65.3829V5.86475H57.542C56.9418 5.86475 56.5204 5.981 56.5204 5.981C55.0646 6.3427 53.9026 7.47945 53.5067 8.93913C53.5067 8.97789 53.4811 9.01664 53.4811 9.05539C53.4045 9.37833 53.3662 9.70127 53.3662 10.05C53.3662 11.6518 54.2601 13.0469 55.5627 13.7445L56.5204 14.287L60.6196 16.5863L62.3563 17.5552C62.6501 17.7231 62.8544 18.046 62.8544 18.4077C62.8544 18.9503 62.4202 19.3895 61.8839 19.3895H54.0047V22.593H61.8455C62.4457 22.593 62.8671 22.4768 62.8671 22.4768C64.3229 22.1151 65.485 20.9783 65.8809 19.5186C65.8809 19.4799 65.9064 19.4411 65.9064 19.4024C65.983 19.0794 66.0214 18.7565 66.0214 18.4077C66.0214 16.8059 65.1275 15.4108 63.8249 14.7133Z" fill="#54575B"/>
<path fill-rule="evenodd" clip-rule="evenodd" d="M70.1714 14.1706C70.1714 17.0125 72.47 19.3377 75.2794 19.3377C76.0456 19.3377 76.7735 19.1697 77.4248 18.8597L77.6419 19.3377L78.7529 21.7533C77.6929 22.257 76.5181 22.5283 75.2666 22.5283C72.6232 22.5283 70.2735 21.2753 68.7667 19.3247C67.6557 17.9038 67.0044 16.1083 67.0044 14.1577C67.0044 12.2072 67.6684 10.4116 68.7667 8.99067C70.2863 7.04012 72.636 5.78711 75.2666 5.78711C76.5181 5.78711 77.6929 6.0713 78.7529 6.56216L77.6419 8.97775L77.4248 9.45571C76.7735 9.14568 76.0456 8.97775 75.2794 8.97775C72.4572 8.97775 70.1714 11.3029 70.1714 14.1448" fill="#54575B"/>
<path fill-rule="evenodd" clip-rule="evenodd" d="M91.8297 3.02295L88.8415 9.06838H85.3042L88.2924 3.02295H91.8297Z" fill="#F58220"/>
<path fill-rule="evenodd" clip-rule="evenodd" d="M12.5658 0.0517578H0V3.2424H4.92925V22.593H8.09623V3.2424H12.5658V0.0517578Z" fill="#54575B"/>
<path d="M139.552 9.59777H129.54V0H126.5V22.58H129.54V12.2588H139.552V22.58H142.591V0H139.552V9.59777Z" fill="#F18121"/>
<path d="M153.727 5.73535C149.091 5.73535 145.311 9.54604 145.311 14.248C145.311 18.95 149.078 22.7607 153.727 22.7607C158.375 22.7607 162.142 18.95 162.142 14.248C162.142 9.54604 158.375 5.73535 153.727 5.73535M153.727 19.4797C150.866 19.4797 148.555 17.1287 148.555 14.248C148.555 11.3674 150.879 9.01642 153.727 9.01642C156.574 9.01642 158.898 11.3674 158.898 14.248C158.898 17.1287 156.574 19.4797 153.727 19.4797Z" fill="#F18121"/>
<path d="M167.25 2.8418H164.185V17.9812C164.185 17.9812 164.185 18.0846 164.223 18.1233C164.262 18.6917 164.377 19.2471 164.568 19.7768C164.747 20.3064 165.015 20.7973 165.373 21.2623C165.717 21.7273 166.164 22.0632 166.714 22.2828C167.263 22.5024 167.901 22.6186 168.642 22.6186H168.872C168.872 22.6186 168.91 22.5799 168.923 22.5799H172.958V19.7122L169.331 19.7768C168.808 19.7768 168.399 19.7251 168.105 19.6218C167.812 19.5184 167.62 19.3634 167.531 19.1438C167.441 18.9242 167.378 18.6917 167.339 18.4462C167.301 18.2008 167.275 17.9295 167.275 17.6195V8.57721H173.213V5.73534H167.275V2.8418H167.25Z" fill="#F18121"/>
<path d="M188.768 8.24136C188.091 7.47923 187.248 6.85918 186.265 6.40707C185.281 5.96787 184.158 5.73535 182.919 5.73535C181.744 5.73535 180.646 5.95495 179.65 6.39415C178.654 6.83335 177.785 7.44047 177.07 8.18969C176.342 8.95183 175.78 9.85606 175.372 10.8766C174.963 11.897 174.759 13.008 174.759 14.1576C174.759 15.3977 174.989 16.5474 175.436 17.5937C175.883 18.6271 176.508 19.5184 177.274 20.2547C178.041 20.991 178.947 21.5723 179.969 21.9728C180.991 22.3732 182.089 22.5799 183.251 22.5799C184.847 22.5799 186.214 22.3086 187.312 21.7532C188.384 21.2106 189.368 20.4743 190.211 19.5701L190.415 19.3505L188.461 17.6841L188.27 17.865C187.618 18.4979 186.89 19.0276 186.111 19.4022C185.345 19.7897 184.4 19.9705 183.302 19.9705C182.625 19.9705 181.961 19.8543 181.335 19.6476C181.029 19.5313 180.722 19.4022 180.454 19.2342C180.339 19.1697 180.224 19.0921 180.097 19.0017C180.058 18.9759 180.007 18.9501 179.969 18.9113C179.816 18.795 179.663 18.6788 179.509 18.5238C179.075 18.1362 178.718 17.6454 178.437 17.0899C178.309 16.8445 178.207 16.5861 178.105 16.3019C178.092 16.2503 178.079 16.2115 178.053 16.1469C178.002 16.0048 177.964 15.8627 177.926 15.6948C177.773 15.036 177.721 14.3385 177.773 13.6409C177.785 13.4342 177.824 13.2146 177.862 12.9692C177.875 12.8788 177.9 12.7754 177.926 12.6721C178.028 12.1683 178.168 11.7033 178.373 11.2641C178.654 10.657 179.011 10.1273 179.445 9.67522C179.88 9.23602 180.39 8.87433 180.965 8.61597C181.284 8.47388 181.642 8.37054 181.999 8.30595H182.038C182.038 8.30595 182.063 8.29304 182.076 8.29304H182.102C182.459 8.21553 182.829 8.20261 183.213 8.22845C183.468 8.24136 183.736 8.29303 184.004 8.35762C184.324 8.42221 184.592 8.52555 184.86 8.64181C185.435 8.91308 185.933 9.27477 186.341 9.72689C186.75 10.179 187.069 10.7086 187.299 11.3287C187.439 11.6904 187.529 12.0779 187.605 12.4654H180.288V15.2556H190.747L190.785 15.0102C190.811 14.8552 190.824 14.7002 190.824 14.571V14.2351C190.824 13.0596 190.645 11.9487 190.3 10.9153C189.955 9.8819 189.432 8.96475 188.755 8.20261" fill="#F18121"/>
<path d="M196.276 0H193.211V22.58H196.276V0Z" fill="#F18121"/>
<path d="M208.778 14.6614L207.807 14.1189L203.683 11.8066L201.933 10.8249C201.64 10.657 201.435 10.334 201.435 9.95941C201.435 9.41687 201.869 8.96475 202.418 8.96475H210.361V5.73535H202.457C201.857 5.73535 201.422 5.85161 201.422 5.85161C199.954 6.2133 198.792 7.36297 198.383 8.83557C198.37 8.87433 198.358 8.91308 198.358 8.96475C198.281 9.28769 198.243 9.62355 198.243 9.95941C198.243 11.5741 199.137 12.9692 200.465 13.6797L201.435 14.2222L205.573 16.5345L207.322 17.5162C207.616 17.6841 207.82 18.0071 207.82 18.3817C207.82 18.9242 207.386 19.3763 206.837 19.3763H198.894V22.6057H206.799C207.399 22.6057 207.833 22.4766 207.833 22.4766C209.302 22.1149 210.476 20.9652 210.872 19.4926C210.872 19.4538 210.898 19.4151 210.898 19.3634C210.974 19.0405 211.013 18.7046 211.013 18.3688C211.013 16.7541 210.119 15.359 208.791 14.6485" fill="#F18121"/>
</g>
<defs>
<clipPath id="clip0_390_724">
<rect width="211" height="29" fill="white"/>
</clipPath>
</defs>
</svg>
