<svg width="26" height="26" viewBox="0 0 26 26" fill="none" xmlns="http://www.w3.org/2000/svg">
<g clip-path="url(#clip0_3_2267)">
<path d="M10.8411 9.87187L16.3661 13.0116L10.8411 16.1513V9.87187ZM26 2.78571V23.2143C26 24.7522 24.7522 26 23.2143 26H2.78571C1.24777 26 0 24.7522 0 23.2143V2.78571C0 1.24777 1.24777 0 2.78571 0H23.2143C24.7522 0 26 1.24777 26 2.78571ZM23.5625 13.0174C23.5625 13.0174 23.5625 9.55848 23.1214 7.89866C22.8777 6.9817 22.1638 6.26205 21.2527 6.0183C19.6103 5.57143 13 5.57143 13 5.57143C13 5.57143 6.38973 5.57143 4.74732 6.0183C3.83616 6.26205 3.12232 6.9817 2.87857 7.89866C2.4375 9.55268 2.4375 13.0174 2.4375 13.0174C2.4375 13.0174 2.4375 16.4763 2.87857 18.1362C3.12232 19.0531 3.83616 19.7437 4.74732 19.9875C6.38973 20.4286 13 20.4286 13 20.4286C13 20.4286 19.6103 20.4286 21.2527 19.9817C22.1638 19.7379 22.8777 19.0473 23.1214 18.1304C23.5625 16.4763 23.5625 13.0174 23.5625 13.0174Z" fill="#F3F8E7"/>
</g>
<defs>
<clipPath id="clip0_3_2267">
<rect width="26" height="26" fill="white"/>
</clipPath>
</defs>
</svg>
